HIERARCHY
ROOT hip
{
  OFFSET 0 0 0
  CHANNELS 6 Xposition Yposition Zposition Zrotation Yrotation Xrotation
  JOINT abdomen
  {
    OFFSET 0 20.6881 -0.73152
    CHANNELS 3 Zrotation Xrotation Yrotation
    JOINT chest
    {
      OFFSET 0 11.7043 -0.48768
      CHANNELS 3 Zrotation Xrotation Yrotation
      JOINT neck
      {
        OFFSET 0 22.1894 -2.19456
        CHANNELS 3 Zrotation Xrotation Yrotation
        JOINT head
        {
          OFFSET -0.24384 7.07133 1.2192
          CHANNELS 3 Zrotation Xrotation Yrotation
          JOINT leftEye
          {
            OFFSET 4.14528 8.04674 8.04672
            CHANNELS 3 Zrotation Xrotation Yrotation
            End Site
            {
              OFFSET 1 0 0
            }
          }
          JOINT rightEye
          {
            OFFSET -3.6576 8.04674 8.04672
            CHANNELS 3 Zrotation Xrotation Yrotation
            End Site
            {
              OFFSET 1 0 0
            }
          }
        }
      }
      JOINT rCollar
      {
        OFFSET -2.68224 19.2634 -4.8768
        CHANNELS 3 Zrotation Xrotation Yrotation
        JOINT rShldr
        {
          OFFSET -8.77824 -1.95073 1.46304
          CHANNELS 3 Zrotation Xrotation Yrotation
          JOINT rForeArm
          {
            OFFSET -28.1742 -1.7115 0.48768
            CHANNELS 3 Zrotation Xrotation Yrotation
            JOINT rHand
            {
              OFFSET -22.5879 0.773209 7.07136
              CHANNELS 3 Zrotation Xrotation Yrotation
              JOINT rThumb1
              {
                OFFSET -1.2192 -0.487915 3.41376
                CHANNELS 3 Zrotation Xrotation Yrotation
                JOINT rThumb2
                {
                  OFFSET -3.37035 -0.52449 3.41376
                  CHANNELS 3 Zrotation Xrotation Yrotation
                  End Site
                  {
                    OFFSET -1.78271 -1.18214 1.43049
                  }
                }
              }
              JOINT rIndex1
              {
                OFFSET -7.75947 0.938293 5.60832
                CHANNELS 3 Zrotation Xrotation Yrotation
                JOINT rIndex2
                {
                  OFFSET -2.54057 -0.884171 1.56538
                  CHANNELS 3 Zrotation Xrotation Yrotation
                  End Site
                  {
                    OFFSET -1.62519 -0.234802 1.16502
                  }
                }
              }
              JOINT rMid1
              {
                OFFSET -8.24714 1.18213 3.41376
                CHANNELS 3 Zrotation Xrotation Yrotation
                JOINT rMid2
                {
                  OFFSET -3.10165 -0.590103 1.0647
                  CHANNELS 3 Zrotation Xrotation Yrotation
                  End Site
                  {
                    OFFSET -2.48547 -0.328903 0.83742
                  }
                }
              }
              JOINT rRing1
              {
                OFFSET -8.82822 0.546677 1.51678
                CHANNELS 3 Zrotation Xrotation Yrotation
                JOINT rRing2
                {
                  OFFSET -2.60934 -0.819778 -0.0198488
                  CHANNELS 3 Zrotation Xrotation Yrotation
                  End Site
                  {
                    OFFSET -2.33842 -0.294052 0.168128
                  }
                }
              }
              JOINT rPinky1
              {
                OFFSET -8.27202 -0.0477905 -0.4584
                CHANNELS 3 Zrotation Xrotation Yrotation
                JOINT rPinky2
                {
                  OFFSET -1.82734 -0.647385 -0.700984
                  CHANNELS 3 Zrotation Xrotation Yrotation
                  End Site
                  {
                    OFFSET -1.69225 -0.51767 -0.607171
                  }
                }
              }
            }
          }
        }
      }
      JOINT lCollar
      {
        OFFSET 2.68224 19.2634 -4.8768
        CHANNELS 3 Zrotation Xrotation Yrotation
        JOINT lShldr
        {
          OFFSET 8.77824 -1.95073 1.46304
          CHANNELS 3 Zrotation Xrotation Yrotation
          JOINT lForeArm
          {
            OFFSET 28.1742 -1.7115 0.48768
            CHANNELS 3 Zrotation Xrotation Yrotation
            JOINT lHand
            {
              OFFSET 22.5879 0.773209 7.07136
              CHANNELS 3 Zrotation Xrotation Yrotation
              JOINT lThumb1
              {
                OFFSET 1.2192 -0.487915 3.41376
                CHANNELS 3 Zrotation Xrotation Yrotation
                JOINT lThumb2
                {
                  OFFSET 3.37035 -0.52449 3.41376
                  CHANNELS 3 Zrotation Xrotation Yrotation
                  End Site
                  {
                    OFFSET 1.78271 -1.18214 1.43049
                  }
                }
              }
              JOINT lIndex1
              {
                OFFSET 7.75947 0.938293 5.60832
                CHANNELS 3 Zrotation Xrotation Yrotation
                JOINT lIndex2
                {
                  OFFSET 2.54057 -0.884171 1.56538
                  CHANNELS 3 Zrotation Xrotation Yrotation
                  End Site
                  {
                    OFFSET 1.62519 -0.234802 1.16502
                  }
                }
              }
              JOINT lMid1
              {
                OFFSET 8.24714 1.18213 3.41376
                CHANNELS 3 Zrotation Xrotation Yrotation
                JOINT lMid2
                {
                  OFFSET 3.10165 -0.590103 1.0647
                  CHANNELS 3 Zrotation Xrotation Yrotation
                  End Site
                  {
                    OFFSET 2.48547 -0.328903 0.83742
                  }
                }
              }
              JOINT lRing1
              {
                OFFSET 8.82822 0.546677 1.51678
                CHANNELS 3 Zrotation Xrotation Yrotation
                JOINT lRing2
                {
                  OFFSET 2.60934 -0.819778 -0.0198488
                  CHANNELS 3 Zrotation Xrotation Yrotation
                  End Site
                  {
                    OFFSET 2.33842 -0.294052 0.168128
                  }
                }
              }
              JOINT lPinky1
              {
                OFFSET 8.27202 -0.0477905 -0.4584
                CHANNELS 3 Zrotation Xrotation Yrotation
                JOINT lPinky2
                {
                  OFFSET 1.82734 -0.647385 -0.700984
                  CHANNELS 3 Zrotation Xrotation Yrotation
                  End Site
                  {
                    OFFSET 1.69225 -0.51767 -0.607171
                  }
                }
              }
            }
          }
        }
      }
    }
  }
  JOINT rButtock
  {
    OFFSET -8.77824 4.35084 1.2192
    CHANNELS 3 Zrotation Xrotation Yrotation
    JOINT rThigh
    {
      OFFSET 0 -1.70687 -2.19456
      CHANNELS 3 Zrotation Xrotation Yrotation
      JOINT rShin
      {
        OFFSET 0 -36.8199 0.73152
        CHANNELS 3 Zrotation Xrotation Yrotation
        JOINT rFoot
        {
          OFFSET 0.73152 -45.1104 -5.12064
          CHANNELS 3 Zrotation Xrotation Yrotation
          End Site
          {
            OFFSET -1.1221 -3.69964 12.103
          }
        }
      }
    }
  }
  JOINT lButtock
  {
    OFFSET 8.77824 4.35084 1.2192
    CHANNELS 3 Zrotation Xrotation Yrotation
    JOINT lThigh
    {
      OFFSET 0 -1.70687 -2.19456
      CHANNELS 3 Zrotation Xrotation Yrotation
      JOINT lShin
      {
        OFFSET 0 -36.8199 0.73152
        CHANNELS 3 Zrotation Xrotation Yrotation
        JOINT lFoot
        {
          OFFSET -0.73152 -45.1104 -5.12064
          CHANNELS 3 Zrotation Xrotation Yrotation
          End Site
          {
            OFFSET 1.1221 -3.69964 12.103
          }
        }
      }
    }
  }
}
MOTION
Frames:	4
Frame Time:	0.00833333
-168.731 85.4571 14.597 0.0 0.0 0.0 1.92988 -0.00172182 0.0523824 0.53208 0.00507104 0.0921222 -2.89177e-15 1.59028e-15 -2.73329e-16 -8.67198e-15 9.54166e-15 -7.25253e-16 -0.0 0.0 0.0 -0.0 0.0 0.0 -1.14396e-15 7.2603e-17 -4.96962e-17 -2.82924e-14 1.60891e-15 -1.78906e-15 -4.9731e-13 2.06537e-13 -7.31528e-14 -5.81644e-12 1.18277e-13 -5.02528e-13 -1.36936e-11 7.026e-13 -1.23087e-12 -2.36713e-11 1.21815e-12 -2.13177e-12 -1.36919e-11 7.0171e-13 -1.24996e-12 7.73091 5.47488 0.417314 -1.36945e-11 7.02406e-13 -1.23406e-12 2.90554 0.965183 0.102902 -1.36861e-11 7.02406e-13 -1.23087e-12 10.2786 0.731801 0.0259123 -1.37004e-11 7.05288e-13 -1.21815e-12 2.22167 -0.733487 -0.20892 -1.44034e-15 7.47384e-17 -3.47873e-16 -3.1356e-14 1.88845e-15 -3.97569e-15 -5.16095e-13 -9.81996e-14 -2.8625e-14 -5.79443e-12 4.30717e-13 -5.27972e-13 -1.36829e-11 7.15392e-13 -1.21497e-12 -2.36128e-11 1.23406e-12 -2.1103e-12 -1.36847e-11 7.11649e-13 -1.21815e-12 -7.73091 5.47488 -0.417314 -1.36821e-11 7.15028e-13 -1.22133e-12 -2.90554 0.965183 -0.102902 -1.36833e-11 7.1473e-13 -1.22451e-12 -10.2786 0.731801 -0.0259123 -1.367e-11 7.18805e-13 -1.24042e-12 -2.22167 -0.733487 0.20892 -2.03217e-16 0.0 -3.88251e-19 1.95944 -7.26116 -0.192014 0.00412092 7.58528 0.107065 -0.52125 -0.330669 0.0523239 2.03217e-16 0.0 3.88251e-19 0.976645 -1.92613 0.000870388 0.0089874 -2.0786 0.0740649 0.487909 3.99809 -0.136742
-161.654 85.5057 5.74697 26.391 83.137 26.4209 0.366065 0.645779 1.14436 1.0367 0.0173487 0.407716 1.2211 -1.68468 0.688779 -0.795801 1.10803 1.00151 -0.0 0.0 0.0 -0.0 0.0 0.0 -4.95889e-15 2.61887e-13 7.12286e-15 -4.28236 -1.01767 -0.119789 0.372379 0.159641 -0.552753 -0.000906999 -0.128727 -0.0180627 3.5947e-10 -8.48005e-09 -7.30253e-10 6.2122e-10 -1.46503e-08 -1.26222e-09 3.59471e-10 -8.48006e-09 -7.30271e-10 7.73091 5.47488 0.417314 3.59468e-10 -8.48006e-09 -7.30257e-10 2.90554 0.965183 0.102902 3.59476e-10 -8.48006e-09 -7.30256e-10 10.2786 0.731801 0.0259123 3.59462e-10 -8.48005e-09 -7.30248e-10 2.22167 -0.733487 -0.20892 -5.19073e-15 2.61889e-13 6.75984e-15 4.28596 -0.896846 0.167064 -0.25831 0.0979344 0.405149 0.00886435 -0.403938 0.0558867 2.10033e-11 2.72881e-09 3.52636e-11 3.74007e-11 4.71241e-09 6.27547e-11 2.10024e-11 2.72881e-09 3.52619e-11 -7.73091 5.47488 -0.417314 2.10037e-11 2.72882e-09 3.52572e-11 -2.90554 0.965183 -0.102902 2.10022e-11 2.72881e-09 3.5256e-11 -10.2786 0.731801 -0.0259123 2.10148e-11 2.72881e-09 3.52435e-11 -2.22167 -0.733487 0.20892 -2.03217e-16 0.0 -3.88251e-19 -4.22053 -7.29158 -0.0947272 0.00459279 7.28056 0.103784 -0.368098 0.0937253 0.00588108 2.03217e-16 0.0 3.88251e-19 7.01731 -2.21554 0.0920846 0.00913402 -2.03451 0.0748388 0.50259 4.30387 -0.535261
-161.666 85.4952 5.79676 24.8843 83.081 24.9638 -1.31348 1.33239 2.30379 1.57181 0.0320985 0.741878 2.55568 -3.46474 1.41849 -1.67596 2.27766 2.06071 -0.0 0.0 0.0 -0.0 0.0 0.0 -1.09993e-14 6.94443e-13 1.92262e-14 -10.0958 -2.71375 -0.319746 0.999854 0.425587 -1.47404 -0.00259903 -0.343272 -0.0481679 8.26986e-10 -1.78447e-08 -1.5576e-09 1.42902e-09 -3.08288e-08 -2.69258e-09 8.26987e-10 -1.78447e-08 -1.55762e-09 7.73091 5.47488 0.417314 8.26983e-10 -1.78447e-08 -1.55761e-09 2.90554 0.965183 0.102902 8.26991e-10 -1.78447e-08 -1.55761e-09 10.2786 0.731801 0.0259123 8.26978e-10 -1.78447e-08 -1.5576e-09 2.22167 -0.733487 -0.20892 -1.11628e-14 6.94444e-13 1.87883e-14 10.1075 -2.39153 0.445836 -0.691904 0.261118 1.08041 0.0253897 -1.07716 0.149054 -6.32566e-12 5.76773e-09 1.23491e-10 -7.94726e-12 9.96033e-09 2.18139e-10 -6.32531e-12 5.76774e-09 1.23491e-10 -7.73091 5.47488 -0.417314 -6.32563e-12 5.76775e-09 1.23485e-10 -2.90554 0.965183 -0.102902 -6.32737e-12 5.76774e-09 1.23486e-10 -10.2786 0.731801 -0.0259123 -6.31569e-12 5.76773e-09 1.23477e-10 -2.22167 -0.733487 0.20892 -2.03217e-16 0.0 -3.88251e-19 -10.8699 -7.42503 0.0562798 0.00522908 6.91825 0.100134 -0.200904 0.735787 -0.0626902 2.03217e-16 0.0 3.88251e-19 13.654 -2.69668 0.243063 0.00943759 -1.96104 0.0766854 0.531996 4.81286 -1.19955
-161.655 85.4981 5.84402 23.4823 83.1371 23.5086 -2.83559 1.93789 3.32999 2.04553 0.0418984 1.0389 3.78519 -5.05111 2.0735 -2.50372 3.32002 3.00903 -0.0 0.0 0.0 -0.0 0.0 0.0 -1.25888e-14 7.85517e-13 2.1468e-14 -12.8599 -3.05296 -0.359822 1.12638 0.478744 -1.65831 -0.00296449 -0.386181 -0.0541891 1.1058e-09 -2.54416e-08 -2.1883e-09 1.911e-09 -4.39532e-08 -3.78239e-09 1.1058e-09 -2.54416e-08 -2.18831e-09 7.73091 5.47488 0.417314 1.10579e-09 -2.54416e-08 -2.1883e-09 2.90554 0.965183 0.102902 1.1058e-09 -2.54416e-08 -2.18831e-09 10.2786 0.731801 0.0259123 1.10579e-09 -2.54416e-08 -2.18831e-09 2.22167 -0.733487 -0.20892 -1.26915e-14 7.85517e-13 2.09753e-14 12.8736 -2.69045 0.501682 -0.779084 0.293744 1.21546 0.0289575 -1.21181 0.167693 9.03757e-11 8.185e-09 1.08221e-10 1.59428e-10 1.41347e-08 1.92485e-10 9.03768e-11 8.18501e-09 1.08222e-10 -7.73091 5.47488 -0.417314 9.03754e-11 8.18502e-09 1.08214e-10 -2.90554 0.965183 -0.102902 9.0373e-11 8.18501e-09 1.08217e-10 -10.2786 0.731801 -0.0259123 9.03844e-11 8.185e-09 1.08211e-10 -2.22167 -0.733487 0.20892 -2.03217e-16 0.0 -3.88251e-19 -16.5802 -7.35236 0.0998865 0.00543119 6.6711 0.097242 -0.0597317 0.942514 -0.0870146 2.03217e-16 0.0 3.88251e-19 19.1014 -2.79432 0.274634 0.0094237 -1.94635 0.0763865 0.544759 4.91465 -1.33334
